<svg xmlns="http://www.w3.org/2000/svg" width="135.5" height="25.96" viewBox="0 0 135.5 25.96"><path d="M29.77,12.6a10.63,10.63,0,0,1,7.9,7.9A3,3,0,0,0,40.3,23h0a3,3,0,0,0-2.63,2.45h0a10.62,10.62,0,0,1-7.9,7.9,3,3,0,0,0-2.46,2.63h0a3,3,0,0,0-2.46-2.63,10.62,10.62,0,0,1-7.9-7.9A2.94,2.94,0,0,0,14.33,23h0A3,3,0,0,0,17,20.5a10.63,10.63,0,0,1,7.9-7.9A3,3,0,0,0,27.31,10h0a3,3,0,0,0,2.46,2.62ZM27.31,27.21A4.26,4.26,0,1,0,23.06,23,4.25,4.25,0,0,0,27.31,27.21ZM21.68,16.56h4.57V14.5A8.57,8.57,0,0,0,21.68,16.56Zm6.7,0H33a8.49,8.49,0,0,0-4.57-2.06ZM27.31,31.47A7.75,7.75,0,0,0,33,29.34H21.68A8.54,8.54,0,0,0,27.31,31.47Zm0-6.38A2.14,2.14,0,1,0,25.19,23,2.14,2.14,0,0,0,27.31,25.09Zm-4.75,2.12a6.37,6.37,0,0,1,0-8.51H19.94a8.51,8.51,0,0,0,0,8.51Zm12.14,0a8.58,8.58,0,0,0,0-8.51H32.07a6.34,6.34,0,0,1,0,8.51ZM27.31,23" transform="translate(-14.33 -9.98)" fill="#231f20"/><path d="M42.57,14.52H46.3V21h6.86V14.52h3.73v17H53.16V24.16H46.3v7.31H42.57Z" transform="translate(-14.33 -9.98)" fill="#231f20"/><path d="M63.28,17.3H59.91V14.52h3.37Zm-3.37,1.9h3.37V31.47H59.91Z" transform="translate(-14.33 -9.98)" fill="#231f20"/><path d="M70.22,19.2h2.47v2.25H70.22v6.08c0,1.14.28,1.43,1.42,1.43a5.33,5.33,0,0,0,1-.1V31.5a13.63,13.63,0,0,1-2,.12c-2.07,0-3.87-.48-3.87-2.93V21.45h-2V19.2h2V15.52h3.37Z" transform="translate(-14.33 -9.98)" fill="#231f20"/><path d="M74.16,23c.19-3.16,3-4.11,5.77-4.11,2.45,0,5.39.55,5.39,3.49v6.39a6.25,6.25,0,0,0,.43,2.73H82.33a5.26,5.26,0,0,1-.24-1.18A5.64,5.64,0,0,1,78,31.8c-2.33,0-4.18-1.16-4.18-3.68,0-2.77,2.09-3.44,4.18-3.72s4-.24,4-1.62-1-1.66-2.18-1.66-2.12.52-2.24,1.85ZM82,25.46c-.57.5-1.76.53-2.8.72s-2,.57-2,1.8,1,1.57,2.07,1.57A2.51,2.51,0,0,0,82,26.72Z" transform="translate(-14.33 -9.98)" fill="#231f20"/><path d="M96.29,23.52a2.29,2.29,0,0,0-2.49-2.11c-2.16,0-2.87,2.18-2.87,4s.69,3.87,2.8,3.87a2.58,2.58,0,0,0,2.68-2.49h3.26c-.43,3.25-2.69,5-5.92,5a6,6,0,0,1-6.19-6.29c0-3.82,2.28-6.65,6.27-6.65,2.89,0,5.55,1.52,5.76,4.66Z" transform="translate(-14.33 -9.98)" fill="#231f20"/><path d="M101.57,14.52h3.37v6.39H105a4.33,4.33,0,0,1,3.59-2.05c3.58,0,4.48,2,4.48,5.06v7.55h-3.37V24.54c0-2-.59-3-2.16-3-1.83,0-2.61,1-2.61,3.52v6.43h-3.37Z" transform="translate(-14.33 -9.98)" fill="#231f20"/><path d="M119.12,17.3h-3.37V14.52h3.37Zm-3.37,1.9h3.37V31.47h-3.37Z" transform="translate(-14.33 -9.98)" fill="#231f20"/><path d="M128.29,14.52H132v17h-3.73Z" transform="translate(-14.33 -9.98)" fill="#231f20"/><path d="M134.82,14.52h7.32c4.39,0,7.69,2.75,7.69,8.38,0,4.92-2.52,8.57-7.69,8.57h-7.32Zm3.73,13.82h3.33c2.16,0,4.22-1.33,4.22-5.08,0-3.42-1.18-5.61-4.89-5.61h-2.66Z" transform="translate(-14.33 -9.98)" fill="#231f20"/></svg>